# Created by MKDS Course Modifier
mtllib Sign.mtl
g polygon0
usemtl h_kage
v 10 1 2
v 10 1 -5
v 8 1 2
v 8 1 -7
v -9 1 2
v -9 1 -7
vn 0 0.9980469 0
vn 0 0.9980469 0
vn 0 0.9980469 0
vn 0 0.9980469 0
vn 0 0.9980469 0
vn 0 0.9980469 0
vt 0.125 0
vt 0.5 0
vt 0.125 -0.875
vt 0.5 -0.875
vt 0.125 -1
vt 0.5 -1
f 1/1/1 2/2/2 3/3/3
f 2/2/2 4/4/4 3/3/3
f 3/3/3 4/4/4 5/5/5
f 4/4/4 6/6/6 5/5/5
v 10 1 5
v 10 1 2
v 8 1 5
v 8 1 2
v -6 1 5
v -9 1 2
vn 0 0.9980469 0
vn 0 0.9980469 0
vn 0 0.9980469 0
vn 0 0.9980469 0
vn 0 0.9980469 0
vn 0 0.9980469 0
vt 0 0
vt 0.125 0
vt 0 -0.875
vt 0.125 -0.875
vt 0 -1
vt 0.125 -1
f 7/7/7 8/8/8 9/9/9
f 8/8/8 10/10/10 9/9/9
f 9/9/9 10/10/10 11/11/11
f 10/10/10 12/12/12 11/11/11
g polygon1
usemtl board_c
v -8 9 -6
v -8 9 2
v -8 23 -3
v -8 23 -6
v 8 9 2
v 8 9 -6
v 8 23 -6
v 8 23 -3
v -8 9 2
v 8 9 2
v 8 23 -3
v -8 23 -3
v -8 2 -6
v -8 2 2
v -8 9 2
v -8 9 -6
v 8 2 2
v 8 2 -6
v 8 9 -6
v 8 9 2
v -8 23 -3
v 8 23 -3
v 8 23 -6
v -8 23 -6
v -8 2 2
v 8 2 2
v 8 9 2
v -8 9 2
vn -1 0 0
vn -1 0 0
vn -1 0 0
vn -1 0 0
vn 0.9980469 0 0
vn 0.9980469 0 0
vn 0.9980469 0 0
vn 0.9980469 0 0
vn 0 0.3359375 0.9414063
vn 0 0.3359375 0.9414063
vn 0 0.3359375 0.9414063
vn 0 0.3359375 0.9414063
vn -1 0 0
vn -1 0 0
vn -1 0 0
vn -1 0 0
vn 0.9980469 0 0
vn 0.9980469 0 0
vn 0.9980469 0 0
vn 0.9980469 0 0
vn 0 0.9980469 0
vn 0 0.9980469 0
vn 0 0.9980469 0
vn 0 0.9980469 0
vn 0 0 0.9980469
vn 0 0 0.9980469
vn 0 0 0.9980469
vn 0 0 0.9980469
vt 0.78125 -0.96875
vt 0.96875 -0.96875
vt 0.96875 -0.78125
vt 0.78125 -0.78125
vt 0.78125 -0.96875
vt 0.96875 -0.96875
vt 0.96875 -0.78125
vt 0.78125 -0.78125
vt 0.53125 -0.46875
vt 0.96875 -0.46875
vt 0.96875 -0.03125
vt 0.53125 -0.03125
vt 0.78125 -0.96875
vt 0.96875 -0.96875
vt 0.96875 -0.78125
vt 0.78125 -0.78125
vt 0.78125 -0.96875
vt 0.96875 -0.96875
vt 0.96875 -0.78125
vt 0.78125 -0.78125
vt 0.53125 -0.53125
vt 0.53125 -0.71875
vt 0.71875 -0.71875
vt 0.71875 -0.53125
vt 0.78125 -0.71875
vt 0.96875 -0.71875
vt 0.96875 -0.53125
vt 0.78125 -0.53125
f 13/13/13 14/14/14 15/15/15 16/16/16
f 17/17/17 18/18/18 19/19/19 20/20/20
f 21/21/21 22/22/22 23/23/23 24/24/24
f 25/25/25 26/26/26 27/27/27 28/28/28
f 29/29/29 30/30/30 31/31/31 32/32/32
f 33/33/33 34/34/34 35/35/35 36/36/36
f 37/37/37 38/38/38 39/39/39 40/40/40
