# Created by MKDS Course Modifier
mtllib Trainer Tips.mtl
g polygon0
usemtl h_kage
v 8.5 1 4
v 8.5 1 -1.5
v 5.5 1 5
v 5.5 1 -2.5
v -5.5 1 5
v -5.5 1 -2.5
v -8.5 1 4
v -8.5 1 -1.5
vn 0 0.9980469 0
vn 0 0.9980469 0
vn 0 0.9980469 0
vn 0 0.9980469 0
vn 0 0.9980469 0
vn 0 0.9980469 0
vn 0 0.9980469 0
vn 0 0.9980469 0
vt 0 0
vt 0.3320313 0
vt 0 -0.1054688
vt 0.3320313 -0.1054688
vt 0 -0.8984375
vt 0.3320313 -0.8984375
vt 0 -1
vt 0.3320313 -1
f 1/1/1 2/2/2 3/3/3
f 2/2/2 4/4/4 3/3/3
f 3/3/3 4/4/4 5/5/5
f 4/4/4 6/6/6 5/5/5
f 5/5/5 6/6/6 7/7/7
f 6/6/6 8/8/8 7/7/7
g polygon1
usemtl board_f
v 6 2 1
v 6 12 1
v 6 12 2
v 6 2 2
v 3 2 2
v 3 12 2
v 3 12 1
v 3 2 1
v 6 2 2
v 6 12 2
v 3 12 2
v 3 2 2
v -6 2 1
v -6 2 2
v -6 12 2
v -6 12 1
v -3 2 2
v -3 2 1
v -3 12 1
v -3 12 2
v -6 2 2
v -3 2 2
v -3 12 2
v -6 12 2
vn 0.9980469 0 0
vn 0.9980469 0 0
vn 0.9980469 0 0
vn 0.9980469 0 0
vn -1 0 0
vn -1 0 0
vn -1 0 0
vn -1 0 0
vn 0 0 0.9980469
vn 0 0 0.9980469
vn 0 0 0.9980469
vn 0 0 0.9980469
vn -1 0 0
vn -1 0 0
vn -1 0 0
vn -1 0 0
vn 0.9980469 0 0
vn 0.9980469 0 0
vn 0.9980469 0 0
vn 0.9980469 0 0
vn 0 0 0.9980469
vn 0 0 0.9980469
vn 0 0 0.9980469
vn 0 0 0.9980469
vt 0.21875 -0.96875
vt 0.21875 -0.78125
vt 0.03125 -0.78125
vt 0.03125 -0.96875
vt 0.21875 -0.96875
vt 0.21875 -0.78125
vt 0.03125 -0.78125
vt 0.03125 -0.96875
vt 0.21875 -0.96875
vt 0.21875 -0.78125
vt 0.03125 -0.78125
vt 0.03125 -0.96875
vt 0.03125 -0.96875
vt 0.21875 -0.96875
vt 0.21875 -0.78125
vt 0.03125 -0.78125
vt 0.03125 -0.96875
vt 0.21875 -0.96875
vt 0.21875 -0.78125
vt 0.03125 -0.78125
vt 0.03125 -0.96875
vt 0.21875 -0.96875
vt 0.21875 -0.78125
vt 0.03125 -0.78125
f 9/9/9 10/10/10 11/11/11 12/12/12
f 13/13/13 14/14/14 15/15/15 16/16/16
f 17/17/17 18/18/18 19/19/19 20/20/20
f 21/21/21 22/22/22 23/23/23 24/24/24
f 25/25/25 26/26/26 27/27/27 28/28/28
f 29/29/29 30/30/30 31/31/31 32/32/32
g polygon2
usemtl board_e
v -8 28 3
v -8 12 3
v -6 14 3
v -6 26 3
v 8 28 3
v -8 28 3
v -6 26 3
v 6 26 3
v 8 12 3
v 8 28 3
v 6 26 3
v 6 14 3
v -8 12 3
v 8 12 3
v 6 14 3
v -6 14 3
v -8 12 0
v -8 12 3
v -8 28 3
v -8 28 0
v 8 12 3
v 8 12 0
v 8 28 0
v 8 28 3
v -8 28 3
v 8 28 3
v 8 28 0
v -8 28 0
v -6 14 3
v 6 14 3
v 6 26 3
v -6 26 3
vn 0 0 0.9980469
vn 0 0 0.9980469
vn 0 0 0.9980469
vn 0 0 0.9980469
vn 0 0 0.9980469
vn 0 0 0.9980469
vn 0 0 0.9980469
vn 0 0 0.9980469
vn 0 0 0.9980469
vn 0 0 0.9980469
vn 0 0 0.9980469
vn 0 0 0.9980469
vn 0 0 0.9980469
vn 0 0 0.9980469
vn 0 0 0.9980469
vn 0 0 0.9980469
vn -1 0 0
vn -1 0 0
vn -1 0 0
vn -1 0 0
vn 0.9980469 0 0
vn 0.9980469 0 0
vn 0.9980469 0 0
vn 0.9980469 0 0
vn 0 0.9980469 0
vn 0 0.9980469 0
vn 0 0.9980469 0
vn 0 0.9980469 0
vn 0 0 0.9980469
vn 0 0 0.9980469
vn 0 0 0.9980469
vn 0 0 0.9980469
vt 0.96875 -0.53125
vt 0.78125 -0.53125
vt 0.78125 -0.71875
vt 0.96875 -0.71875
vt 0.96875 -0.53125
vt 0.78125 -0.53125
vt 0.78125 -0.71875
vt 0.96875 -0.71875
vt 0.78125 -0.71875
vt 0.96875 -0.71875
vt 0.96875 -0.53125
vt 0.78125 -0.53125
vt 0.96875 -0.53125
vt 0.78125 -0.53125
vt 0.78125 -0.71875
vt 0.96875 -0.71875
vt 0.78125 -0.71875
vt 0.96875 -0.71875
vt 0.96875 -0.53125
vt 0.78125 -0.53125
vt 0.78125 -0.71875
vt 0.96875 -0.71875
vt 0.96875 -0.53125
vt 0.78125 -0.53125
vt 0.78125 -0.78125
vt 0.78125 -0.96875
vt 0.96875 -0.96875
vt 0.96875 -0.78125
vt 0.96875 -0.03125
vt 0.53125 -0.03125
vt 0.53125 -0.46875
vt 0.96875 -0.46875
f 33/33/33 34/34/34 35/35/35 36/36/36
f 37/37/37 38/38/38 39/39/39 40/40/40
f 41/41/41 42/42/42 43/43/43 44/44/44
f 45/45/45 46/46/46 47/47/47 48/48/48
f 49/49/49 50/50/50 51/51/51 52/52/52
f 53/53/53 54/54/54 55/55/55 56/56/56
f 57/57/57 58/58/58 59/59/59 60/60/60
f 61/61/61 62/62/62 63/63/63 64/64/64
