# Created by MKDS Course Modifier
mtllib Gate 3.mtl
g polygon0
usemtl gate_3
v 40 68 34
v 40 46 34
v 40 46 -39
v 40 68 -39
v -40 68 -39
v -40 46 -39
v -40 46 33
v -40 68 33
v -39 68 34
v -39 46 34
v 39 46 34
v 39 68 34
vn 0 0 0.9980469
vn 0 0 0.9980469
vn 0 0 0.9980469
vn 0 0 0.9980469
vn 0 0 0.9980469
vn 0 0 0.9980469
vn 0 0 0.9980469
vn 0 0 0.9980469
vn 0 0 0.9980469
vn 0 0 0.9980469
vn 0 0 0.9980469
vn 0 0 0.9980469
vt -3.90625 -1
vt -3.90625 -2
vt 0.0625 -2
vt 0.0625 -1
vt -4.09375 -1
vt -4.09375 -2
vt 0.0625 -2
vt 0.0625 -1
vt -3.90625 -1
vt -3.90625 -2
vt 0.0625 -2
vt 0.0625 -1
f 1/1/1 2/2/2 3/3/3 4/4/4
f 5/5/5 6/6/6 7/7/7 8/8/8
f 9/9/9 10/10/10 11/11/11 12/12/12
g polygon1
usemtl gate_2
v 20 41 26
v 20 12 26
v 20 12 38
v 20 41 38
v -20 12 26
v -20 41 26
v -20 41 38
v -20 12 38
v -20 12 38
v 20 12 38
v 20 12 26
v -20 12 26
v -20 41 26
v -20 12 26
v 20 12 26
v 20 41 26
vn 0 0 0.9980469
vn 0 0 0.9980469
vn 0 0 0.9980469
vn 0 0 0.9980469
vn 0 0 0.9980469
vn 0 0 0.9980469
vn 0 0 0.9980469
vn 0 0 0.9980469
vn 0 0 0.9980469
vn 0 0 0.9980469
vn 0 0 0.9980469
vn 0 0 0.9980469
vn 0 0 0.9980469
vn 0 0 0.9980469
vn 0 0 0.9980469
vn 0 0 0.9980469
vt -0.1582031 -0.2363281
vt -0.1582031 -0.3320313
vt -0.1171875 -0.3320313
vt -0.1171875 -0.2363281
vt -0.1640625 -0.3320313
vt -0.1640625 -0.2363281
vt -0.2050781 -0.2363281
vt -0.2050781 -0.3320313
vt -0.96875 -0.96875
vt -0.03125 -0.96875
vt -0.03125 -0.5
vt -0.96875 -0.5
vt -0.4082031 -0.1992188
vt -0.5039063 -0.1992188
vt -0.5039063 -0.3320313
vt -0.4082031 -0.3320313
f 13/13/13 14/14/14 15/15/15 16/16/16
f 17/17/17 18/18/18 19/19/19 20/20/20
f 21/21/21 22/22/22 23/23/23 24/24/24
f 25/25/25 26/26/26 27/27/27 28/28/28
g polygon2
usemtl h_kage
v 38 70 -29
v 38 70 -37
v -32 70 -29
v -38 70 -37
v -32 70 32
v -38 70 32
vn 0 0.9980469 0
vn 0 0.9980469 0
vn 0 0.9980469 0
vn 0 0.9980469 0
vn 0 0.9980469 0
vn 0 0.9980469 0
vt 0.5 1
vt 0 1
vt 0.5 0.5
vt 0 0.5
vt 0.5 0
vt 0 0
f 29/29/29 30/30/30 31/31/31
f 30/30/30 32/32/32 31/31/31
f 31/31/31 32/32/32 33/33/33
f 32/32/32 34/34/34 33/33/33
v 54 1 40
v 54 1 -40
v 46 1 40
v 46 1 -48
v -48 1 40
v -48 1 -48
vn 0 0.9980469 0
vn 0 0.9980469 0
vn 0 0.9980469 0
vn 0 0.9980469 0
vn 0 0.9980469 0
vn 0 0.9980469 0
vt 1 0.5
vt 1 1
vt 0.5 0.5
vt 0.5 1
vt 0 0.5
vt 0 1
f 35/35/35 36/36/36 37/37/37
f 36/36/36 38/38/38 37/37/37
f 37/37/37 38/38/38 39/39/39
f 38/38/38 40/40/40 39/39/39
v 54 1 50
v 54 1 40
v 46 1 50
v 46 1 40
v -38 1 50
v -48 1 40
vn 0 0.9980469 0
vn 0 0.9980469 0
vn 0 0.9980469 0
vn 0 0.9980469 0
vn 0 0.9980469 0
vn 0 0.9980469 0
vt 1 0
vt 1 0.5
vt 0.5 0
vt 0.5 0.5
vt 0 0
vt 0 0.5
f 41/41/41 42/42/42 43/43/43
f 42/42/42 44/44/44 43/43/43
f 43/43/43 44/44/44 45/45/45
f 44/44/44 46/46/46 45/45/45
g polygon3
usemtl gate_1
v -38 75 -37
v -44 75 -44
v -38 75 32
v -44 75 38
v 38 75 32
v 44 75 38
v 38 75 -37
v 44 75 -44
v -38 75 -37
v -44 75 -44
vn 0 0.9980469 0
vn 0 0.9980469 0
vn 0 0.9980469 0
vn 0 0.9980469 0
vn 0 0.9980469 0
vn 0 0.9980469 0
vn 0 0.9980469 0
vn 0 0.9980469 0
vn 0 0.9980469 0
vn 0 0.9980469 0
vt 0.6630859 -1.912109
vt 0.6591797 -1.908203
vt 0.6630859 -1.958008
vt 0.6591797 -1.961914
vt 0.7128906 -1.958008
vt 0.7167969 -1.961914
vt 0.7128906 -1.912109
vt 0.7167969 -1.908203
vt 0.6630859 -1.912109
vt 0.6591797 -1.908203
f 47/47/47 48/48/48 49/49/49
f 48/48/48 50/50/50 49/49/49
f 49/49/49 50/50/50 51/51/51
f 50/50/50 52/52/52 51/51/51
f 51/51/51 52/52/52 53/53/53
f 52/52/52 54/54/54 53/53/53
f 53/53/53 54/54/54 55/55/55
f 54/54/54 56/56/56 55/55/55
v 38 50 38
v 44 45 38
v 38 68 38
v 44 75 38
v -38 68 38
v -44 75 38
v -38 50 38
v -44 45 38
vn 0 0 0.9980469
vn 0 0 0.9980469
vn 0 0 0.9980469
vn 0 0 0.9980469
vn 0 0 0.9980469
vn 0 0 0.9980469
vn 0 0 0.9980469
vn 0 0 0.9980469
vt 0.7880859 -1.967773
vt 0.7832031 -1.972656
vt 0.8212891 -1.967773
vt 0.8320313 -1.972656
vt 0.8212891 -1.907227
vt 0.8320313 -1.902344
vt 0.7880859 -1.907227
vt 0.7832031 -1.902344
f 57/57/57 58/58/58 59/59/59
f 58/58/58 60/60/60 59/59/59
f 59/59/59 60/60/60 61/61/61
f 60/60/60 62/62/62 61/61/61
f 61/61/61 62/62/62 63/63/63
f 62/62/62 64/64/64 63/63/63
v -24 12 38
v -20 12 38
v -24 45 38
v -20 41 38
v 24 45 38
v 20 41 38
v 24 12 38
v 20 12 38
vn 0 0 0.9980469
vn 0 0 0.9980469
vn 0 0 0.9980469
vn 0 0 0.9980469
vn 0 0 0.9980469
vn 0 0 0.9980469
vn 0 0 0.9980469
vn 0 0 0.9980469
vt 0.5185547 -1.536133
vt 0.5185547 -1.541016
vt 0.5761719 -1.536133
vt 0.5693359 -1.541016
vt 0.5761719 -1.59668
vt 0.5693359 -1.59082
vt 0.5185547 -1.59668
vt 0.5185547 -1.59082
f 65/65/65 66/66/66 67/67/67
f 66/66/66 68/68/68 67/67/67
f 67/67/67 68/68/68 69/69/69
f 68/68/68 70/70/70 69/69/69
f 69/69/69 70/70/70 71/71/71
f 70/70/70 72/72/72 71/71/71
v -44 50 32
v -44 45 38
v -44 68 32
v -44 75 38
v -44 68 -37
v -44 75 -44
v -44 50 -37
v -44 45 -44
vn -1 0 0
vn -1 0 0
vn -1 0 0
vn -1 0 0
vn -1 0 0
vn -1 0 0
vn -1 0 0
vn -1 0 0
vt 0.7880859 -1.96875
vt 0.7832031 -1.972656
vt 0.8203125 -1.96875
vt 0.8320313 -1.972656
vt 0.8203125 -1.90918
vt 0.8320313 -1.90332
vt 0.7880859 -1.90918
vt 0.7832031 -1.90332
f 73/73/73 74/74/74 75/75/75
f 74/74/74 76/76/76 75/75/75
f 75/75/75 76/76/76 77/77/77
f 76/76/76 78/78/78 77/77/77
f 77/77/77 78/78/78 79/79/79
f 78/78/78 80/80/80 79/79/79
v 44 50 -37
v 44 45 -44
v 44 68 -37
v 44 75 -44
v 44 68 32
v 44 75 38
v 44 50 32
v 44 45 38
vn 0.9980469 0 0
vn 0.9980469 0 0
vn 0.9980469 0 0
vn 0.9980469 0 0
vn 0.9980469 0 0
vn 0.9980469 0 0
vn 0.9980469 0 0
vn 0.9980469 0 0
vt 0.7871094 -1.966797
vt 0.7822266 -1.972656
vt 0.8193359 -1.966797
vt 0.8310547 -1.972656
vt 0.8193359 -1.907227
vt 0.8310547 -1.902344
vt 0.7871094 -1.907227
vt 0.7822266 -1.902344
f 81/81/81 82/82/82 83/83/83
f 82/82/82 84/84/84 83/83/83
f 83/83/83 84/84/84 85/85/85
f 84/84/84 86/86/86 85/85/85
f 85/85/85 86/86/86 87/87/87
f 86/86/86 88/88/88 87/87/87
v -22 48.5 46
v 22 48.5 46
v 22 48.5 39
v -22 48.5 39
v -22 43.5 46
v 22 43.5 46
v 22 48.5 46
v -22 48.5 46
v 38 50 38
v 38 68 38
v 38 68 35
v 38 50 35
v -38 50 38
v 38 50 38
v 38 50 35
v -38 50 35
v -22 43.5 -45
v -22 48.5 -45
v -22 48.5 -68
v -22 43.5 -68
v 44 50 -37
v 44 68 -37
v 41 68 -37
v 41 50 -37
v 44 50 32
v 44 50 -37
v 41 50 -37
v 41 50 32
v -22 43.5 39
v -22 43.5 46
v -22 48.5 46
v -22 48.5 39
v -44 50 32
v -44 68 32
v -41 68 32
v -41 50 32
v -44 50 -37
v -44 50 32
v -41 50 32
v -41 50 -37
v -44 68 -37
v -44 50 -37
v -41 50 -37
v -41 68 -37
v -44 50 -37
v -44 45 -17
v -44 45 11
v -44 50 32
v -38 68 38
v -38 50 38
v -38 50 35
v -38 68 35
v 44 50 32
v 44 45 11
v 44 45 -17
v 44 50 -37
v 44 68 32
v 44 50 32
v 41 50 32
v 41 68 32
v -38 50 38
v -24 45 38
v 24 45 38
v 38 50 38
v 14 69 32
v -14 69 32
v -38 75 32
v 38 75 32
v 24 12 40
v -24 12 40
v -24 2 58
v 24 2 58
v 22 43.5 -68
v 22 48.5 -68
v 22 48.5 -45
v 22 43.5 -45
v -22 48.5 -68
v -22 48.5 -45
v 22 48.5 -45
v 22 48.5 -68
v 20 12 38
v -20 12 38
v -24 12 40
v 24 12 40
v -44 45 11
v -44 12 11
v -44 12 38
v -44 45 38
v -44 12 11
v -46 12 11
v -46 12 40
v -44 12 38
v -46 12 11
v -46 2 11
v -46 2 40
v -46 12 40
v 44 45 11
v 44 12 11
v 44 12 -17
v 44 45 -17
v 44 12 11
v 46 12 11
v 46 12 -17
v 44 12 -17
v 46 12 11
v 46 2 11
v 46 2 -17
v 46 12 -17
v -44 45 -17
v -44 12 -17
v -44 12 11
v -44 45 11
v 44 45 -17
v 44 12 -17
v 44 12 -44
v 44 45 -44
v -44 12 -17
v -46 12 -17
v -46 12 11
v -44 12 11
v 44 12 -17
v 46 12 -17
v 46 12 -46
v 44 12 -44
v -46 12 -17
v -46 2 -17
v -46 2 11
v -46 12 11
v 46 12 -17
v 46 2 -17
v 46 2 -46
v 46 12 -46
v 24 45 38
v 24 12 38
v 44 12 38
v 44 45 38
v 24 12 38
v 24 12 40
v 46 12 40
v 44 12 38
v 38 69 32
v 38 69 -37
v 14 69 -37
v 14 69 32
v 24 12 40
v 24 2 40
v 46 2 40
v 46 12 40
v -24 12 -44
v -24 12 -46
v -46 12 -46
v -44 12 -44
v 14 69 32
v 14 69 -37
v -14 69 -37
v -14 69 32
v -38 69 32
v -38 69 -37
v -38 75 -37
v -38 75 32
v 14 69 -37
v 38 75 -37
v -38 75 -37
v -14 69 -37
v 38 69 32
v 38 75 32
v 38 75 -37
v 38 69 -37
v -22 43.5 -68
v -22 48.5 -68
v 22 48.5 -68
v 22 43.5 -68
v -44 12 -44
v -44 12 -17
v -44 45 -17
v -44 45 -44
v 44 12 38
v 44 12 11
v 44 45 11
v 44 45 38
v -44 12 38
v -24 12 38
v -24 45 38
v -44 45 38
v -46 12 -46
v -46 12 -17
v -44 12 -17
v -44 12 -44
v 46 12 -46
v 24 12 -46
v 24 12 -44
v 44 12 -44
v 46 12 40
v 46 12 11
v 44 12 11
v 44 12 38
v -46 12 40
v -24 12 40
v -24 12 38
v -44 12 38
v -46 2 -46
v -46 2 -17
v -46 12 -17
v -46 12 -46
v 46 2 40
v 46 2 11
v 46 12 11
v 46 12 40
v -38 69 32
v -14 69 32
v -14 69 -37
v -38 69 -37
v -46 2 40
v -24 2 40
v -24 12 40
v -46 12 40
v 22 43.5 46
v 22 43.5 39
v 22 48.5 39
v 22 48.5 46
vn 0 0.9980469 0
vn 0 0.9980469 0
vn 0 0.9980469 0
vn 0 0.9980469 0
vn 0 0 0.9980469
vn 0 0 0.9980469
vn 0 0 0.9980469
vn 0 0 0.9980469
vn -1 0 0
vn -1 0 0
vn -1 0 0
vn -1 0 0
vn 0 0.9980469 0
vn 0 0.9980469 0
vn 0 0.9980469 0
vn 0 0.9980469 0
vn -1 0 0
vn -1 0 0
vn -1 0 0
vn -1 0 0
vn 0 0 0.9980469
vn 0 0 0.9980469
vn 0 0 0.9980469
vn 0 0 0.9980469
vn 0 0.9980469 0
vn 0 0.9980469 0
vn 0 0.9980469 0
vn 0 0.9980469 0
vn -1 0 0
vn -1 0 0
vn -1 0 0
vn -1 0 0
vn 0 0 -1
vn 0 0 -1
vn 0 0 -1
vn 0 0 -1
vn 0 0.9980469 0
vn 0 0.9980469 0
vn 0 0.9980469 0
vn 0 0.9980469 0
vn 0 0 0.9980469
vn 0 0 0.9980469
vn 0 0 0.9980469
vn 0 0 0.9980469
vn -1 0 0
vn -1 0 0
vn -1 0 0
vn -1 0 0
vn 0.9980469 0 0
vn 0.9980469 0 0
vn 0.9980469 0 0
vn 0.9980469 0 0
vn 0.9980469 0 0
vn 0.9980469 0 0
vn 0.9980469 0 0
vn 0.9980469 0 0
vn 0 0 -1
vn 0 0 -1
vn 0 0 -1
vn 0 0 -1
vn 0 0 0.9980469
vn 0 0 0.9980469
vn 0 0 0.9980469
vn 0 0 0.9980469
vn 0 0 -1
vn 0 0 -1
vn 0 0 -1
vn 0 0 -1
vn 0 0.875 0.4863281
vn 0 0.875 0.4863281
vn 0 0.875 0.4863281
vn 0 0.875 0.4863281
vn 0.9980469 0 0
vn 0.9980469 0 0
vn 0.9980469 0 0
vn 0.9980469 0 0
vn 0 0.9980469 0
vn 0 0.9980469 0
vn 0 0.9980469 0
vn 0 0.9980469 0
vn 0 0.9980469 0
vn 0 0.9980469 0
vn 0 0.9980469 0
vn 0 0.9980469 0
vn -1 0 0
vn -1 0 0
vn -1 0 0
vn -1 0 0
vn 0 0.9980469 0
vn 0 0.9980469 0
vn 0 0.9980469 0
vn 0 0.9980469 0
vn -1 0 0
vn -1 0 0
vn -1 0 0
vn -1 0 0
vn 0.9980469 0 0
vn 0.9980469 0 0
vn 0.9980469 0 0
vn 0.9980469 0 0
vn 0 0.9980469 0
vn 0 0.9980469 0
vn 0 0.9980469 0
vn 0 0.9980469 0
vn 0.9980469 0 0
vn 0.9980469 0 0
vn 0.9980469 0 0
vn 0.9980469 0 0
vn -1 0 0
vn -1 0 0
vn -1 0 0
vn -1 0 0
vn 0.9980469 0 0
vn 0.9980469 0 0
vn 0.9980469 0 0
vn 0.9980469 0 0
vn 0 0.9980469 0
vn 0 0.9980469 0
vn 0 0.9980469 0
vn 0 0.9980469 0
vn 0 0.9980469 0
vn 0 0.9980469 0
vn 0 0.9980469 0
vn 0 0.9980469 0
vn -1 0 0
vn -1 0 0
vn -1 0 0
vn -1 0 0
vn 0.9980469 0 0
vn 0.9980469 0 0
vn 0.9980469 0 0
vn 0.9980469 0 0
vn 0 0 0.9980469
vn 0 0 0.9980469
vn 0 0 0.9980469
vn 0 0 0.9980469
vn 0 0.9980469 0
vn 0 0.9980469 0
vn 0 0.9980469 0
vn 0 0.9980469 0
vn 0 0.9980469 0
vn 0 0.9980469 0
vn 0 0.9980469 0
vn 0 0.9980469 0
vn 0 0 0.9980469
vn 0 0 0.9980469
vn 0 0 0.9980469
vn 0 0 0.9980469
vn 0 0.9980469 0
vn 0 0.9980469 0
vn 0 0.9980469 0
vn 0 0.9980469 0
vn 0 0.9980469 0
vn 0 0.9980469 0
vn 0 0.9980469 0
vn 0 0.9980469 0
vn 0.9980469 0 0
vn 0.9980469 0 0
vn 0.9980469 0 0
vn 0.9980469 0 0
vn 0 0 0.9980469
vn 0 0 0.9980469
vn 0 0 0.9980469
vn 0 0 0.9980469
vn -1 0 0
vn -1 0 0
vn -1 0 0
vn -1 0 0
vn 0 0 -1
vn 0 0 -1
vn 0 0 -1
vn 0 0 -1
vn -1 0 0
vn -1 0 0
vn -1 0 0
vn -1 0 0
vn 0.9980469 0 0
vn 0.9980469 0 0
vn 0.9980469 0 0
vn 0.9980469 0 0
vn 0 0 0.9980469
vn 0 0 0.9980469
vn 0 0 0.9980469
vn 0 0 0.9980469
vn 0 0.9980469 0
vn 0 0.9980469 0
vn 0 0.9980469 0
vn 0 0.9980469 0
vn 0 0.9980469 0
vn 0 0.9980469 0
vn 0 0.9980469 0
vn 0 0.9980469 0
vn 0 0.9980469 0
vn 0 0.9980469 0
vn 0 0.9980469 0
vn 0 0.9980469 0
vn 0 0.9980469 0
vn 0 0.9980469 0
vn 0 0.9980469 0
vn 0 0.9980469 0
vn -1 0 0
vn -1 0 0
vn -1 0 0
vn -1 0 0
vn 0.9980469 0 0
vn 0.9980469 0 0
vn 0.9980469 0 0
vn 0.9980469 0 0
vn 0 0.9980469 0
vn 0 0.9980469 0
vn 0 0.9980469 0
vn 0 0.9980469 0
vn 0 0 0.9980469
vn 0 0 0.9980469
vn 0 0 0.9980469
vn 0 0 0.9980469
vn 0.9980469 0 0
vn 0.9980469 0 0
vn 0.9980469 0 0
vn 0.9980469 0 0
vt 0.359375 -0.578125
vt 0.015625 -0.578125
vt 0.015625 -0.734375
vt 0.359375 -0.734375
vt 0.5390625 -1.419922
vt 0.5390625 -1.457031
vt 0.5517578 -1.457031
vt 0.5517578 -1.419922
vt 0.9316406 -0.9638672
vt 0.9316406 -0.9199219
vt 0.9257813 -0.9199219
vt 0.9257813 -0.9638672
vt 0.6728516 -0.9111328
vt 0.6728516 -0.9560547
vt 0.6826172 -0.9560547
vt 0.6826172 -0.9111328
vt 0.5244141 -1.449219
vt 0.5380859 -1.449219
vt 0.5380859 -1.425781
vt 0.5244141 -1.425781
vt 0.9501953 -0.9638672
vt 0.9501953 -0.9199219
vt 0.9443359 -0.9199219
vt 0.9443359 -0.9638672
vt 0.7011719 -0.9550781
vt 0.7011719 -0.9111328
vt 0.6914063 -0.9111328
vt 0.6914063 -0.9550781
vt 0.5273438 -1.428711
vt 0.5273438 -1.452148
vt 0.5400391 -1.452148
vt 0.5400391 -1.428711
vt 0.9296875 -0.9199219
vt 0.9296875 -0.9648438
vt 0.9355469 -0.9648438
vt 0.9355469 -0.9199219
vt 0.6738281 -0.9111328
vt 0.6738281 -0.9550781
vt 0.6835938 -0.9550781
vt 0.6835938 -0.9111328
vt 0.9394531 -0.9199219
vt 0.9394531 -0.9648438
vt 0.9453125 -0.9648438
vt 0.9453125 -0.9199219
vt 0.7880859 -1.90918
vt 0.7832031 -1.926758
vt 0.7832031 -1.949219
vt 0.7880859 -1.96875
vt 0.9355469 -0.9199219
vt 0.9355469 -0.9638672
vt 0.9404297 -0.9638672
vt 0.9404297 -0.9199219
vt 0.7871094 -1.907227
vt 0.7822266 -1.926758
vt 0.7822266 -1.949219
vt 0.7871094 -1.966797
vt 0.9267578 -0.9648438
vt 0.9267578 -0.9199219
vt 0.9208984 -0.9199219
vt 0.9208984 -0.9648438
vt 0.7880859 -1.907227
vt 0.7832031 -1.918945
vt 0.7832031 -1.957031
vt 0.7880859 -1.967773
vt 0.9423828 -1.948242
vt 0.9423828 -1.927734
vt 0.9228516 -1.911133
vt 0.9228516 -1.964844
vt 0.984375 -0.859375
vt 0.984375 -0.015625
vt 0.609375 -0.015625
vt 0.609375 -0.859375
vt 0.5439453 -1.449219
vt 0.5576172 -1.449219
vt 0.5576172 -1.425781
vt 0.5439453 -1.425781
vt 0.359375 -0.734375
vt 0.359375 -0.578125
vt 0.015625 -0.578125
vt 0.015625 -0.734375
vt 0.5605469 -0.2910156
vt 0.5292969 -0.2910156
vt 0.5292969 -0.3378906
vt 0.5605469 -0.3378906
vt 0.015625 -1.015625
vt 0.015625 -1.484375
vt 0.484375 -1.484375
vt 0.484375 -1.015625
vt 0.578125 -0.515625
vt 0.515625 -0.515625
vt 0.515625 -0.984375
vt 0.578125 -0.953125
vt 0.484375 -0.515625
vt 0.390625 -0.515625
vt 0.390625 -0.984375
vt 0.484375 -0.984375
vt 0.015625 -1.015625
vt 0.015625 -1.484375
vt 0.484375 -1.484375
vt 0.484375 -1.015625
vt 0.578125 -0.515625
vt 0.515625 -0.515625
vt 0.515625 -0.984375
vt 0.578125 -0.984375
vt 0.484375 -0.515625
vt 0.390625 -0.515625
vt 0.390625 -0.984375
vt 0.484375 -0.984375
vt 0.015625 -1.015625
vt 0.015625 -1.484375
vt 0.484375 -1.484375
vt 0.484375 -1.015625
vt 0.015625 -1.015625
vt 0.015625 -1.484375
vt 0.484375 -1.484375
vt 0.484375 -1.015625
vt 0.578125 -0.515625
vt 0.515625 -0.515625
vt 0.515625 -0.984375
vt 0.578125 -0.984375
vt 0.578125 -0.515625
vt 0.515625 -0.515625
vt 0.515625 -0.984375
vt 0.578125 -0.953125
vt 0.484375 -0.515625
vt 0.390625 -0.515625
vt 0.390625 -0.984375
vt 0.484375 -0.984375
vt 0.484375 -0.515625
vt 0.390625 -0.515625
vt 0.390625 -0.984375
vt 0.484375 -0.984375
vt 0.09375 -1.015625
vt 0.09375 -1.484375
vt 0.40625 -1.484375
vt 0.40625 -1.015625
vt 0.578125 -1.9375
vt 0.515625 -1.9375
vt 0.515625 -1.5625
vt 0.578125 -1.59375
vt 0.359375 -0.984375
vt 0.359375 -0.765625
vt 0.015625 -0.765625
vt 0.015625 -0.984375
vt 0.484375 -1.5625
vt 0.390625 -1.5625
vt 0.390625 -1.9375
vt 0.484375 -1.9375
vt 0.578125 -1.9375
vt 0.515625 -1.9375
vt 0.515625 -1.5625
vt 0.578125 -1.59375
vt 0.359375 -0.984375
vt 0.359375 -0.765625
vt 0.015625 -0.765625
vt 0.015625 -0.984375
vt 0.9238281 -1.912109
vt 0.9238281 -1.96582
vt 0.9433594 -1.96582
vt 0.9433594 -1.912109
vt 0.9433594 -1.948242
vt 0.9238281 -1.964844
vt 0.9238281 -1.911133
vt 0.9433594 -1.927734
vt 0.9208984 -1.963867
vt 0.9404297 -1.963867
vt 0.9404297 -1.911133
vt 0.9208984 -1.911133
vt 0.5546875 -1.416992
vt 0.5419922 -1.416992
vt 0.5419922 -1.454102
vt 0.5546875 -1.454102
vt 0.015625 -1.484375
vt 0.484375 -1.484375
vt 0.484375 -1.015625
vt 0.015625 -1.015625
vt 0.015625 -1.484375
vt 0.484375 -1.484375
vt 0.484375 -1.015625
vt 0.015625 -1.015625
vt 0.09375 -1.484375
vt 0.40625 -1.484375
vt 0.40625 -1.015625
vt 0.09375 -1.015625
vt 0.515625 -0.515625
vt 0.515625 -0.984375
vt 0.578125 -0.984375
vt 0.578125 -0.546875
vt 0.515625 -1.5625
vt 0.515625 -1.9375
vt 0.578125 -1.9375
vt 0.578125 -1.59375
vt 0.515625 -0.515625
vt 0.515625 -0.984375
vt 0.578125 -0.984375
vt 0.578125 -0.546875
vt 0.515625 -1.5625
vt 0.515625 -1.9375
vt 0.578125 -1.9375
vt 0.578125 -1.59375
vt 0.390625 -0.515625
vt 0.390625 -0.984375
vt 0.484375 -0.984375
vt 0.484375 -0.515625
vt 0.390625 -0.515625
vt 0.390625 -0.984375
vt 0.484375 -0.984375
vt 0.484375 -0.515625
vt 0.015625 -0.984375
vt 0.359375 -0.984375
vt 0.359375 -0.765625
vt 0.015625 -0.765625
vt 0.390625 -1.5625
vt 0.390625 -1.9375
vt 0.484375 -1.9375
vt 0.484375 -1.5625
vt 0.546875 -1.428711
vt 0.546875 -1.452148
vt 0.5595703 -1.452148
vt 0.5595703 -1.428711
f 89/89/89 90/90/90 91/91/91 92/92/92
f 93/93/93 94/94/94 95/95/95 96/96/96
f 97/97/97 98/98/98 99/99/99 100/100/100
f 101/101/101 102/102/102 103/103/103 104/104/104
f 105/105/105 106/106/106 107/107/107 108/108/108
f 109/109/109 110/110/110 111/111/111 112/112/112
f 113/113/113 114/114/114 115/115/115 116/116/116
f 117/117/117 118/118/118 119/119/119 120/120/120
f 121/121/121 122/122/122 123/123/123 124/124/124
f 125/125/125 126/126/126 127/127/127 128/128/128
f 129/129/129 130/130/130 131/131/131 132/132/132
f 133/133/133 134/134/134 135/135/135 136/136/136
f 137/137/137 138/138/138 139/139/139 140/140/140
f 141/141/141 142/142/142 143/143/143 144/144/144
f 145/145/145 146/146/146 147/147/147 148/148/148
f 149/149/149 150/150/150 151/151/151 152/152/152
f 153/153/153 154/154/154 155/155/155 156/156/156
f 157/157/157 158/158/158 159/159/159 160/160/160
f 161/161/161 162/162/162 163/163/163 164/164/164
f 165/165/165 166/166/166 167/167/167 168/168/168
f 169/169/169 170/170/170 171/171/171 172/172/172
f 173/173/173 174/174/174 175/175/175 176/176/176
f 177/177/177 178/178/178 179/179/179 180/180/180
f 181/181/181 182/182/182 183/183/183 184/184/184
f 185/185/185 186/186/186 187/187/187 188/188/188
f 189/189/189 190/190/190 191/191/191 192/192/192
f 193/193/193 194/194/194 195/195/195 196/196/196
f 197/197/197 198/198/198 199/199/199 200/200/200
f 201/201/201 202/202/202 203/203/203 204/204/204
f 205/205/205 206/206/206 207/207/207 208/208/208
f 209/209/209 210/210/210 211/211/211 212/212/212
f 213/213/213 214/214/214 215/215/215 216/216/216
f 217/217/217 218/218/218 219/219/219 220/220/220
f 221/221/221 222/222/222 223/223/223 224/224/224
f 225/225/225 226/226/226 227/227/227 228/228/228
f 229/229/229 230/230/230 231/231/231 232/232/232
f 233/233/233 234/234/234 235/235/235 236/236/236
f 237/237/237 238/238/238 239/239/239 240/240/240
f 241/241/241 242/242/242 243/243/243 244/244/244
f 245/245/245 246/246/246 247/247/247 248/248/248
f 249/249/249 250/250/250 251/251/251 252/252/252
f 253/253/253 254/254/254 255/255/255 256/256/256
f 257/257/257 258/258/258 259/259/259 260/260/260
f 261/261/261 262/262/262 263/263/263 264/264/264
f 265/265/265 266/266/266 267/267/267 268/268/268
f 269/269/269 270/270/270 271/271/271 272/272/272
f 273/273/273 274/274/274 275/275/275 276/276/276
f 277/277/277 278/278/278 279/279/279 280/280/280
f 281/281/281 282/282/282 283/283/283 284/284/284
f 285/285/285 286/286/286 287/287/287 288/288/288
f 289/289/289 290/290/290 291/291/291 292/292/292
f 293/293/293 294/294/294 295/295/295 296/296/296
f 297/297/297 298/298/298 299/299/299 300/300/300
f 301/301/301 302/302/302 303/303/303 304/304/304
f 305/305/305 306/306/306 307/307/307 308/308/308
v 44 50 32
v 44 45 38
v 44 45 11
v 38 50 38
v 24 45 38
v 44 45 38
v -38 50 38
v -44 45 38
v -24 45 38
v 24 2 40
v 24 12 40
v 24 2 58
v 14 69 -37
v 38 69 -37
v 38 75 -37
v -14 69 -37
v -38 75 -37
v -38 69 -37
v -24 12 40
v -24 2 40
v -24 2 58
v -44 50 32
v -44 45 11
v -44 45 38
v -44 50 -37
v -44 45 -44
v -44 45 -17
v 44 50 -37
v 44 45 -17
v 44 45 -44
v -38 75 32
v -14 69 32
v -38 69 32
v 24 12 40
v 24 12 38
v 20 12 38
v -20 12 38
v -24 12 38
v -24 12 40
v 14 69 32
v 38 75 32
v 38 69 32
vn 0.9980469 0 0
vn 0.9980469 0 0
vn 0.9980469 0 0
vn 0 0 0.9980469
vn 0 0 0.9980469
vn 0 0 0.9980469
vn 0 0 0.9980469
vn 0 0 0.9980469
vn 0 0 0.9980469
vn 0.9980469 0 0
vn 0.9980469 0 0
vn 0.9980469 0 0
vn 0 0 0.9980469
vn 0 0 0.9980469
vn 0 0 0.9980469
vn 0 0 0.9980469
vn 0 0 0.9980469
vn 0 0 0.9980469
vn -1 0 0
vn -1 0 0
vn -1 0 0
vn -1 0 0
vn -1 0 0
vn -1 0 0
vn -1 0 0
vn -1 0 0
vn -1 0 0
vn 0.9980469 0 0
vn 0.9980469 0 0
vn 0.9980469 0 0
vn 0 0 -1
vn 0 0 -1
vn 0 0 -1
vn 0 0.9980469 0
vn 0 0.9980469 0
vn 0 0.9980469 0
vn 0 0.9980469 0
vn 0 0.9980469 0
vn 0 0.9980469 0
vn 0 0 -1
vn 0 0 -1
vn 0 0 -1
vt 0.7871094 -1.907227
vt 0.7822266 -1.902344
vt 0.7822266 -1.926758
vt 0.7880859 -1.967773
vt 0.7832031 -1.957031
vt 0.7832031 -1.972656
vt 0.7880859 -1.907227
vt 0.7832031 -1.902344
vt 0.7832031 -1.918945
vt 0.5390625 -0.4658203
vt 0.5722656 -0.4658203
vt 0.5390625 -0.40625
vt 0.9433594 -1.948242
vt 0.9433594 -1.964844
vt 0.9238281 -1.964844
vt 0.9433594 -1.927734
vt 0.9238281 -1.911133
vt 0.9433594 -1.911133
vt 0.5732422 -0.4677734
vt 0.5400391 -0.4677734
vt 0.5400391 -0.4082031
vt 0.7880859 -1.96875
vt 0.7832031 -1.949219
vt 0.7832031 -1.972656
vt 0.7880859 -1.90918
vt 0.7832031 -1.90332
vt 0.7832031 -1.926758
vt 0.7871094 -1.966797
vt 0.7822266 -1.949219
vt 0.7822266 -1.972656
vt 0.9228516 -1.911133
vt 0.9423828 -1.927734
vt 0.9423828 -1.911133
vt 0.5458984 -0.3222656
vt 0.5458984 -0.3154297
vt 0.5332031 -0.3154297
vt 0.5556641 -0.3154297
vt 0.5419922 -0.3154297
vt 0.5419922 -0.3222656
vt 0.9423828 -1.948242
vt 0.9228516 -1.964844
vt 0.9423828 -1.964844
f 309/309/309 310/310/310 311/311/311
f 312/312/312 313/313/313 314/314/314
f 315/315/315 316/316/316 317/317/317
f 318/318/318 319/319/319 320/320/320
f 321/321/321 322/322/322 323/323/323
f 324/324/324 325/325/325 326/326/326
f 327/327/327 328/328/328 329/329/329
f 330/330/330 331/331/331 332/332/332
f 333/333/333 334/334/334 335/335/335
f 336/336/336 337/337/337 338/338/338
f 339/339/339 340/340/340 341/341/341
f 342/342/342 343/343/343 344/344/344
f 345/345/345 346/346/346 347/347/347
f 348/348/348 349/349/349 350/350/350
