# Created by MKDS Course Modifier
mtllib Trees.mtl
g polygon0
usemtl c1_o01
v -8 0.2138672 -5.040039
v 8 0.2138672 -5.040039
v 8 19.15723 -21.75781
v -8 19.15723 -21.75781
v -8 0.2138672 8.881836
v 8 0.2138672 8.881836
v 8 19.15723 -7.835938
v -8 19.15723 -7.835938
v -8 0 16
v 8 0 16
v 8 0 -16
v -8 0 -16
vn 0 0.6621094 0.75
vn 0 0.6621094 0.75
vn 0 0.6621094 0.75
vn 0 0.6621094 0.75
vn 0 0.6621094 0.75
vn 0 0.6621094 0.75
vn 0 0.6621094 0.75
vn 0 0.6621094 0.75
vn 0 0.9980469 0
vn 0 0.9980469 0
vn 0 0.9980469 0
vn 0 0.9980469 0
vt 0 -1
vt 0.5 -1
vt 0.5 0
vt 0 0
vt 0 -1
vt 0.5 -1
vt 0.5 0
vt 0 0
vt 0.5 -1
vt 1 -1
vt 1 0
vt 0.5 0
f 1/1/1 2/2/2 3/3/3 4/4/4
f 5/5/5 6/6/6 7/7/7 8/8/8
f 9/9/9 10/10/10 11/11/11 12/12/12
